# xmcd
#
# Track frame offsets:
#	150
#	12380
#	21118
#	31373
#	40956
#	56141
#	68576
#	78171
#	89859
#	102803
#
# Disc length: 1540 seconds
#
# Revision: 0
# Processed by: cddbd v1.4PL0 Copyright (c) Steve Scherf et al.
# Submitted via: dBpowerAMP V4.0
#
DISCID=7b06020a
DTITLE=Chuck Wagon Gang - Gathered Together
DYEAR=2002
DGENRE=Gospel
TTITLE0=Gathered Together
TTITLE1=This World Is Not My Home
TTITLE2=Prisoner Of Love
TTITLE3=Open Up Them Pearly Gates
TTITLE4=Someone To Talk To
TTITLE5=Dreamboat
TTITLE6=The Blood Still Flows
TTITLE7=Lord Lead Me On
TTITLE8=It's An Unfriendly World
TTITLE9=Hand In Hand With Jesus
EXTD=
EXTT0=
EXTT1=
EXTT2=
EXTT3=
EXTT4=
EXTT5=
EXTT6=
EXTT7=
EXTT8=
EXTT9=
PLAYORDER=
